<?xml version="1.0" encoding="utf-8"?>
<!-- Generator: Adobe Illustrator 16.0.0, SVG Export Plug-In . SVG Version: 6.00 Build 0)  -->
<!DOCTYPE svg PUBLIC "-//W3C//DTD SVG 1.1//EN" "http://www.w3.org/Graphics/SVG/1.1/DTD/svg11.dtd">
<svg version="1.1" id="Layer_1" xmlns="http://www.w3.org/2000/svg" xmlns:xlink="http://www.w3.org/1999/xlink" x="0px" y="0px"
	 width="400px" height="300px" viewBox="0 0 400 300" enable-background="new 0 0 400 300" xml:space="preserve">
<g>
	<g>
		<path fill="#F9C922" d="M74.79,125.225v64.98H26.566V11.663h58.473c48.525,0,72.787,17.564,72.787,52.741
			c0,20.714-10.082,36.697-30.249,48l52.018,77.802h-54.73l-37.835-64.98H74.79z M74.79,88.966h9.03
			c16.892,0,25.287-7.448,25.287-22.349c0-12.299-8.229-18.421-24.788-18.421H74.79V88.966z"/>
		<path fill="#F9C922" d="M301.825,190.205H195.801V11.663h106.024v38.697h-57.803v28.086h53.563v38.745h-53.563v33.735h57.803
			V190.205z"/>
		<path fill="#F9C922" d="M333.069,190.205V11.663h48.497v178.542H333.069z"/>
	</g>
	<g>
		<path fill="#FFFFFF" d="M67.855,287.258H46.204v-62.41H26.685v-17.695h60.702v17.695H67.855V287.258z"/>
		<path fill="#FFFFFF" d="M120.486,258.115v29.143H98.835v-80.105h26.226c21.792,0,32.689,7.916,32.689,23.645
			c0,9.303-4.523,16.512-13.62,21.523l23.361,34.938h-24.569l-16.987-29.143H120.486z M120.486,241.834h4.036
			c7.581,0,11.372-3.379,11.372-10.035c0-5.525-3.739-8.287-11.167-8.287h-4.241V241.834z"/>
		<path fill="#FFFFFF" d="M242.892,207.152v48.213c0,10.461-3.013,18.639-8.936,24.33c-5.925,5.797-14.515,8.643-25.668,8.643
			c-10.87,0-19.293-2.789-25.166-8.365s-8.756-13.594-8.756-24.158v-48.662h21.727v46.953c0,5.732,1.055,9.857,3.162,12.375
			c2.158,2.518,5.279,3.828,9.366,3.828c4.446,0,7.625-1.303,9.645-3.809c2.018-2.506,3.024-6.662,3.024-12.471v-46.877H242.892z"/>
		<path fill="#FFFFFF" d="M312.139,262.947c0,4.934-1.299,9.373-3.79,13.217c-2.596,3.842-6.182,6.871-10.962,8.994
			c-4.678,2.119-10.24,3.18-16.691,3.18c-5.293,0-9.778-0.367-13.453-1.1c-3.572-0.73-7.35-2.061-11.23-3.98v-19.232
			c4.138,2.107,8.392,3.787,12.862,4.93c4.472,1.244,8.584,1.766,12.233,1.766c3.289,0,5.563-0.492,7.132-1.691
			c1.464-1.092,2.197-2.512,2.197-4.258c0-1.078-0.314-2.063-0.843-2.846c-0.629-0.887-1.618-1.678-2.968-2.475
			c-1.351-0.9-4.876-2.619-10.684-5.164c-5.217-2.393-9.105-4.73-11.662-6.914c-2.66-2.287-4.64-4.807-5.834-7.658
			c-1.297-2.955-1.945-6.283-1.945-10.293c0-7.35,2.71-13.145,8.133-17.283c5.32-4.137,12.67-6.205,22.05-6.205
			c8.301,0,16.82,1.965,25.455,5.795l-6.721,16.691c-7.427-3.443-13.928-5.166-19.301-5.166c-2.903,0-4.855,0.553-6.166,1.555
			s-1.966,2.172-1.966,3.611c0,1.619,0.88,3.02,2.434,4.201c1.657,1.285,6.098,3.598,13.218,6.836
			c6.912,3.109,11.724,6.484,14.436,10.016C310.783,253.008,312.139,257.498,312.139,262.947z"/>
		<path fill="#FFFFFF" d="M359.797,287.258h-21.599v-62.41h-19.621v-17.695h60.804v17.695h-19.584V287.258z"/>
	</g>
</g>
</svg>
